# xmcd
#
# Track frame offsets: 
#        150
#        12989
#        24980
#        37566
#        50156
#        62591
#        74819
#        87446
#        100256
#        112719
#        125168
#        137552
#        150162
#        162533
#        174206
#        187272
#        199831
#        212762
#        225695
#        238160
#        250531
#        262863
#
# Disc length: 3658 seconds
#
# Revision: 4
# Processed by: cddbd v1.5PL3 Copyright (c) Steve Scherf et al.
# Submitted via: ExactAudioCopy v0.90b4
#
DISCID=280e4816
DTITLE=Hank Williams - The Complete Hank Williams Disc 01
DYEAR=1998
DGENRE=Country
TTITLE0=Calling You
TTITLE1=Never Again (Will I Knock On Your Door)
TTITLE2=Wealth Won't Save Your Soul
TTITLE3=When God Comes And Gathers His Jewels
TTITLE4=I Don't Care (If Tomorrow Never Comes)
TTITLE5=My Love For You (Has Turned To Hate)
TTITLE6=Honky Tonkin' [1]
TTITLE7=Pan American
TTITLE8=Move It On Over
TTITLE9=I Saw The Light
TTITLE10=(Last Night) I Heard You Crying In Your Sleep
TTITLE11=Six More Miles (To The Graveyard)
TTITLE12=Fly Trouble
TTITLE13=I'm Satisfied With You
TTITLE14=On The Banks Of The Old Pontchartrain
TTITLE15=Rootie Tootie
TTITLE16=I Can't Get You Off Of My Mind
TTITLE17=I'm A Long Gone Daddy
TTITLE18=Honky Tonkin' [2]
TTITLE19=My Sweet Love Ain't Around
TTITLE20=The Blues Come Around
TTITLE21=A Mansion On The Hill
EXTD=YEAR: 1998 ID3G:   2
EXTT0=
EXTT1=
EXTT2=
EXTT3=
EXTT4=
EXTT5=
EXTT6=
EXTT7=
EXTT8=
EXTT9=
EXTT10=
EXTT11=
EXTT12=
EXTT13=
EXTT14=
EXTT15=
EXTT16=
EXTT17=
EXTT18=
EXTT19=
EXTT20=
EXTT21=
PLAYORDER=
